#Exported from google sketchup
mtllib 3.mtl
v   2.6667   6.0000  20.0000
v  -4.0000   4.6667  20.0000
v  -4.0000   6.0000  20.0000
v   1.3333   4.6667  20.0000
v   1.3333   2.0000  20.0000
v   1.3333   0.6667  20.0000
v   1.3333  -4.6667  20.0000
v   4.0000   4.6667  20.0000
v   2.6667   2.0000  20.0000
v   2.6667   4.6667  20.0000
v   4.0000   2.0000  20.0000
v   4.0000   0.6667  20.0000
v   2.6667  -4.6667  20.0000
v   2.6667   0.6667  20.0000
v   4.0000  -4.6667  20.0000
v  -4.0000  -6.0000  20.0000
v  -4.0000  -4.6667  20.0000
v   2.6667  -6.0000  20.0000
v  -1.3333   0.6667  20.0000
v  -1.3333   2.0000  20.0000
v   2.6667  -6.0000 -20.0000
v  -4.0000  -4.6667 -20.0000
v  -4.0000  -6.0000 -20.0000
v   1.3333  -4.6667 -20.0000
v   1.3333   0.6667 -20.0000
v   1.3333   2.0000 -20.0000
v   1.3333   4.6667 -20.0000
v   4.0000  -4.6667 -20.0000
v   2.6667   0.6667 -20.0000
v   2.6667  -4.6667 -20.0000
v   4.0000   0.6667 -20.0000
v   4.0000   2.0000 -20.0000
v   2.6667   4.6667 -20.0000
v   2.6667   2.0000 -20.0000
v   4.0000   4.6667 -20.0000
v  -4.0000   6.0000 -20.0000
v  -4.0000   4.6667 -20.0000
v   2.6667   6.0000 -20.0000
v  -1.3333   2.0000 -20.0000
v  -1.3333   0.6667 -20.0000
#  40 elements
vt   0.0000   0.0000 0.0000
vt   0.0000   0.0000 0.0000
vt   0.0000   0.0000 0.0000
vt   0.0000   0.0000 0.0000
vt   0.0000   0.0000 0.0000
vt   0.0000   0.0000 0.0000
vt   0.0000   0.0000 0.0000
vt   0.0000   0.0000 0.0000
vt   0.0000   0.0000 0.0000
vt   0.0000   0.0000 0.0000
vt   0.0000   0.0000 0.0000
vt   0.0000   0.0000 0.0000
vt   0.0000   0.0000 0.0000
vt   0.0000   0.0000 0.0000
vt   0.0000   0.0000 0.0000
vt   0.0000   0.0000 0.0000
vt   0.0000   0.0000 0.0000
vt   0.0000   0.0000 0.0000
vt   0.0000   0.0000 0.0000
vt   0.0000   0.0000 0.0000
vt   0.0000   0.0000 0.0000
vt   0.0000   0.0000 0.0000
vt   0.0000   0.0000 0.0000
vt   0.0000   0.0000 0.0000
vt   0.0000   0.0000 0.0000
vt   0.0000   0.0000 0.0000
vt   0.0000   0.0000 0.0000
vt   0.0000   0.0000 0.0000
vt   0.0000   0.0000 0.0000
vt   0.0000   0.0000 0.0000
vt   0.0000   0.0000 0.0000
vt   0.0000   0.0000 0.0000
vt   0.0000   0.0000 0.0000
vt   0.0000   0.0000 0.0000
vt   0.0000   0.0000 0.0000
vt   0.0000   0.0000 0.0000
vt   0.0000   0.0000 0.0000
vt   0.0000   0.0000 0.0000
vt   0.0000   0.0000 0.0000
vt   0.0000   0.0000 0.0000
#  40 elements
vn  -0.0000  -0.0000   1.0000
vn   0.0000   0.0000  -1.0000
vn  -1.0000  -0.0000  -0.0000
vn   1.0000   0.0000   0.0000
vn   0.0000   1.0000   0.0000
vn  -0.0000  -1.0000  -0.0000
#  6 elements
#  152 faces
usemtl Default_Material
f 3/3/1 2/2/1 1/1/1
f 4/4/1 1/1/1 2/2/1
f 5/5/1 1/1/1 4/4/1
f 6/6/1 1/1/1 5/5/1
f 7/7/1 1/1/1 6/6/1
f 10/10/1 9/9/1 8/8/1
f 11/11/1 8/8/1 9/9/1
f 14/14/1 13/13/1 12/12/1
f 15/15/1 12/12/1 13/13/1
f 17/17/1 16/16/1 7/7/1
f 18/18/1 7/7/1 16/16/1
f 1/1/1 7/7/1 18/18/1
f 10/10/1 1/1/1 18/18/1
f 9/9/1 10/10/1 18/18/1
f 14/14/1 9/9/1 18/18/1
f 13/13/1 14/14/1 18/18/1
f 20/20/1 19/19/1 5/5/1
f 6/6/1 5/5/1 19/19/1
f 1/1/2 2/2/2 3/3/2
f 2/2/2 1/1/2 4/4/2
f 4/4/2 1/1/2 5/5/2
f 5/5/2 1/1/2 6/6/2
f 6/6/2 1/1/2 7/7/2
f 8/8/2 9/9/2 10/10/2
f 9/9/2 8/8/2 11/11/2
f 12/12/2 13/13/2 14/14/2
f 13/13/2 12/12/2 15/15/2
f 7/7/2 16/16/2 17/17/2
f 16/16/2 7/7/2 18/18/2
f 18/18/2 7/7/2 1/1/2
f 18/18/2 1/1/2 10/10/2
f 18/18/2 10/10/2 9/9/2
f 18/18/2 9/9/2 14/14/2
f 18/18/2 14/14/2 13/13/2
f 5/5/2 19/19/2 20/20/2
f 19/19/2 5/5/2 6/6/2
f 23/23/2 22/22/2 21/21/2
f 24/24/2 21/21/2 22/22/2
f 25/25/2 21/21/2 24/24/2
f 26/26/2 21/21/2 25/25/2
f 27/27/2 21/21/2 26/26/2
f 30/30/2 29/29/2 28/28/2
f 31/31/2 28/28/2 29/29/2
f 34/34/2 33/33/2 32/32/2
f 35/35/2 32/32/2 33/33/2
f 37/37/2 36/36/2 27/27/2
f 38/38/2 27/27/2 36/36/2
f 21/21/2 27/27/2 38/38/2
f 30/30/2 21/21/2 38/38/2
f 29/29/2 30/30/2 38/38/2
f 34/34/2 29/29/2 38/38/2
f 33/33/2 34/34/2 38/38/2
f 40/40/2 39/39/2 25/25/2
f 26/26/2 25/25/2 39/39/2
f 21/21/1 22/22/1 23/23/1
f 22/22/1 21/21/1 24/24/1
f 24/24/1 21/21/1 25/25/1
f 25/25/1 21/21/1 26/26/1
f 26/26/1 21/21/1 27/27/1
f 28/28/1 29/29/1 30/30/1
f 29/29/1 28/28/1 31/31/1
f 32/32/1 33/33/1 34/34/1
f 33/33/1 32/32/1 35/35/1
f 27/27/1 36/36/1 37/37/1
f 36/36/1 27/27/1 38/38/1
f 38/38/1 27/27/1 21/21/1
f 38/38/1 21/21/1 30/30/1
f 38/38/1 30/30/1 29/29/1
f 38/38/1 29/29/1 34/34/1
f 38/38/1 34/34/1 33/33/1
f 25/25/1 39/39/1 40/40/1
f 39/39/1 25/25/1 26/26/1
f 23/23/3 16/16/3 22/22/3
f 17/17/3 22/22/3 16/16/3
f 22/22/4 16/16/4 23/23/4
f 16/16/4 22/22/4 17/17/4
f 17/17/5 7/7/5 22/22/5
f 24/24/5 22/22/5 7/7/5
f 22/22/6 7/7/6 17/17/6
f 7/7/6 22/22/6 24/24/6
f 24/24/3 7/7/3 25/25/3
f 6/6/3 25/25/3 7/7/3
f 25/25/4 7/7/4 24/24/4
f 7/7/4 25/25/4 6/6/4
f 6/6/6 19/19/6 25/25/6
f 40/40/6 25/25/6 19/19/6
f 25/25/5 19/19/5 6/6/5
f 19/19/5 25/25/5 40/40/5
f 40/40/3 19/19/3 39/39/3
f 20/20/3 39/39/3 19/19/3
f 39/39/4 19/19/4 40/40/4
f 19/19/4 39/39/4 20/20/4
f 20/20/5 5/5/5 39/39/5
f 26/26/5 39/39/5 5/5/5
f 39/39/6 5/5/6 20/20/6
f 5/5/6 39/39/6 26/26/6
f 26/26/3 5/5/3 27/27/3
f 4/4/3 27/27/3 5/5/3
f 27/27/4 5/5/4 26/26/4
f 5/5/4 27/27/4 4/4/4
f 4/4/6 2/2/6 27/27/6
f 37/37/6 27/27/6 2/2/6
f 27/27/5 2/2/5 4/4/5
f 2/2/5 27/27/5 37/37/5
f 37/37/3 2/2/3 36/36/3
f 3/3/3 36/36/3 2/2/3
f 36/36/4 2/2/4 37/37/4
f 2/2/4 36/36/4 3/3/4
f 3/3/5 1/1/5 36/36/5
f 38/38/5 36/36/5 1/1/5
f 36/36/6 1/1/6 3/3/6
f 1/1/6 36/36/6 38/38/6
f 10/10/4 33/33/4 1/1/4
f 38/38/4 1/1/4 33/33/4
f 1/1/3 33/33/3 10/10/3
f 33/33/3 1/1/3 38/38/3
f 10/10/5 8/8/5 33/33/5
f 35/35/5 33/33/5 8/8/5
f 33/33/6 8/8/6 10/10/6
f 8/8/6 33/33/6 35/35/6
f 11/11/4 32/32/4 8/8/4
f 35/35/4 8/8/4 32/32/4
f 8/8/3 32/32/3 11/11/3
f 32/32/3 8/8/3 35/35/3
f 11/11/6 9/9/6 32/32/6
f 34/34/6 32/32/6 9/9/6
f 32/32/5 9/9/5 11/11/5
f 9/9/5 32/32/5 34/34/5
f 14/14/4 29/29/4 9/9/4
f 34/34/4 9/9/4 29/29/4
f 9/9/3 29/29/3 14/14/3
f 29/29/3 9/9/3 34/34/3
f 14/14/5 12/12/5 29/29/5
f 31/31/5 29/29/5 12/12/5
f 29/29/6 12/12/6 14/14/6
f 12/12/6 29/29/6 31/31/6
f 15/15/4 28/28/4 12/12/4
f 31/31/4 12/12/4 28/28/4
f 12/12/3 28/28/3 15/15/3
f 28/28/3 12/12/3 31/31/3
f 15/15/6 13/13/6 28/28/6
f 30/30/6 28/28/6 13/13/6
f 28/28/5 13/13/5 15/15/5
f 13/13/5 28/28/5 30/30/5
f 18/18/4 21/21/4 13/13/4
f 30/30/4 13/13/4 21/21/4
f 13/13/3 21/21/3 18/18/3
f 21/21/3 13/13/3 30/30/3
f 18/18/6 16/16/6 21/21/6
f 23/23/6 21/21/6 16/16/6
f 21/21/5 16/16/5 18/18/5
f 16/16/5 21/21/5 23/23/5