# Alias OBJ Model File
# Exported from SketchUp, (c) 2000-2006 Google, Inc.
# File units = meters

mtllib but_milieu.mtl

g Mesh1 Group1 Model

usemtl goal_texture
v -3.60956e-016 -0.2 1.32584e-032
vt -0.2 1
vn -2.0845e-032 -3.28969e-032 -1
v -1 -8.12333e-018 2.7524e-032
vt -1.33828e-063 -8.02968e-064
v -3.60956e-016 -1.18444e-018 -1.52939e-048
vt -4.46093e-064 1
f 1/1/1 2/2/1 3/3/1

v -1 -0.2 2.74243e-032
vt -0.2 -6.6914e-064
f 2/2/1 1/1/1 4/4/1

vt 1 2.67161e-032
vn 6.93889e-018 -1 -4.9822e-034
v -1 -0.2 0.65
vt 0 0.65
vt 0 4.00741e-032
f 1/5/2 5/6/2 4/7/2

v -3.60956e-016 -0.2 0.65
vt 1 0.65
f 5/6/2 1/5/2 6/8/2

vt -0.2 1.22618e-017
vn 1 1.95272e-016 -1.22618e-017
v -3.60956e-016 -1.18444e-018 1
vt -1.88333e-016 1
vt -0.2 0.65
f 1/9/3 7/10/3 6/11/3

vt -1.88333e-016 1.22618e-017
f 7/10/3 1/9/3 3/12/3

vn -6.93889e-018 1 4.9822e-034
vt -1 1
vt -1 1.3358e-032
f 2/7/4 7/13/4 3/14/4

v -1 -8.12333e-018 1
vt 0 1
f 7/13/4 2/7/4 8/15/4

vn -1 -6.93889e-018 8.07886e-034
vt 0.2 0.65
f 2/7/5 5/16/5 8/15/5

vt 0.2 4.00741e-032
f 5/16/5 2/7/5 4/17/5

v -1 -1 1
vt 1 1
f 8/15/5 5/16/5 9/18/5

v -1 -1 0.65
vt 1 0.65
f 9/18/5 5/16/5 10/19/5

vt -0.2 -3.81259e-016
vn -5.86553e-016 7.33191e-016 -1
v -1.80478e-016 -1 0.65
vt -1 1
vt -1 -3.81259e-016
f 5/20/6 11/21/6 10/22/6

vt -0.2 1
f 11/21/6 5/20/6 6/23/6

v -1.80478e-016 -1 1
vt -1 1
vt -1 0.65
f 6/11/3 12/24/3 11/25/3

f 12/24/3 6/11/3 7/10/3

vt 0 1
vn 8.07886e-034 -4.9822e-034 1
vt 1 0
vt 1 1
f 7/26/7 9/27/7 12/28/7

vt 0 0
f 9/27/7 7/26/7 8/29/7

vt 1 0.65
vt 1 1
f 9/15/2 11/30/2 12/31/2

f 11/30/2 9/15/2 10/6/2

