# Alias OBJ Model File
# Exported from SketchUp, (c) 2000-2006 Google, Inc.
# File units = inches

mtllib EmptyBonus.mtl

g Mesh1 Model

usemtl _LightGray_
v 7.5 7.5 0
vt -7.5 7.5
vn 0 0 -1
v -7.5 -7.5 0
vt 7.5 -7.5
v -7.5 7.5 0
vt 7.5 7.5
f 1/1/1 2/2/1 3/3/1

v 7.5 -7.5 0
vt -7.5 -7.5
f 2/2/1 1/1/1 4/4/1

vt 7.5 0
vn 1 0 0
v 7.5 -7.5 1
vt -7.5 1
vt -7.5 0
f 1/5/2 5/6/2 4/7/2

v 7.5 7.5 1
vt 7.5 1
f 5/6/2 1/5/2 6/8/2

vt -7.5 0
vn 0 1 0
v -7.5 7.5 1
vt 7.5 1
vt -7.5 1
f 1/9/3 7/10/3 6/11/3

vt 7.5 0
f 7/10/3 1/9/3 3/12/3

vt 7.5 0
vn -1 0 0
vt -7.5 1
vt -7.5 0
f 2/13/4 7/14/4 3/15/4

v -7.5 -7.5 1
vt 7.5 1
f 7/14/4 2/13/4 8/16/4

vn 0 -1 0
f 2/9/5 5/10/5 8/11/5

f 5/10/5 2/9/5 4/12/5

usemtl EmptyBonus
vt 0 -1
vn 0 0 1
vt -1 5.55112e-017
vt -1 -1
f 5/17/6 7/18/6 8/19/6

vt 0 5.55112e-017
f 7/18/6 5/17/6 6/20/6

