# Alias OBJ Model File
# Exported from SketchUp, (c) 2000-2006 Google, Inc.
# File units = inches

mtllib portail.mtl

g Mesh1 Model

usemtl portal
v -5.17524 -1.3867 0.0625
vt 0.86985 -0.598023
vn 0 0 1
v -5.17524 1.3867 0.0625
vt 0.86985 -0.395477
v -5.3578 6.99338e-016 0.0625
vt 0.882655 -0.49675
f 1/1/1 2/2/1 3/3/1

v -4.63999 -2.6789 0.0625
vt 0.832308 -0.692394
f 2/2/1 1/1/1 4/4/1

vn 0.965926 0.258819 0
v -4.63999 -2.6789 0.5
vn 0.866025 0.5 0
f 1/1/2 5/4/3 4/4/3

v -5.17524 -1.3867 0.5
f 5/4/3 1/1/2 6/1/2

vn 1 -6.99877e-016 -1.90908e-017
f 3/3/4 6/1/2 1/1/2

v -5.3578 6.66134e-016 0.5
f 6/1/2 3/3/4 7/3/4

v -5.17524 1.3867 0.5
vn 0.965926 -0.258819 -7.5062e-017
f 3/3/4 8/2/5 7/3/4

f 8/2/5 3/3/4 2/2/5

v -4.63999 2.6789 0.5
vt 0.832308 -0.301106
vn 0.866025 -0.5 4.11475e-016
f 2/2/5 9/5/6 8/2/5

v -4.63999 2.6789 0.0625
f 9/5/6 2/2/5 10/5/6

f 2/2/1 4/4/1 10/5/1

v -3.78854 -3.78854 0.0625
vt 0.772588 -0.773432
f 10/5/1 4/4/1 11/6/1

v -3.78854 -3.78854 0.5
vn 0.707107 0.707107 -4.06125e-016
f 4/4/3 12/6/7 11/6/7

f 12/6/7 4/4/3 5/4/3

usemtl _Charcoal_
vt -0.699333 -4.93113
vn -0.252246 -0.145634 0.956641
v -4.94975 -4.94975 0
vt 0.913683 -6.63432
vn -0.205958 -0.205958 0.956641
vt 0.699333 -4.93113
f 5/7/8 13/8/9 12/9/9

v -6.06218 -3.5 0
vt -0.913683 -6.63432
f 13/8/9 5/7/8 14/10/8

vt -0.699333 -4.93113
vn -0.281344 -0.0753858 0.956641
vt 0.913683 -6.63432
vt 0.699333 -4.93113
f 6/11/10 14/12/8 5/13/8

v -6.76148 -1.81173 0
vt -0.913683 -6.63432
f 14/12/8 6/11/10 15/14/10

vt -0.699333 -4.93113
vn -0.291268 1.11104e-016 0.956641
vt 0.913683 -6.63432
vt 0.699333 -4.93113
f 7/15/11 15/16/10 6/17/10

v -7 1.28588e-015 0
vt -0.913683 -6.63432
f 15/16/10 7/15/11 16/18/11

vt 0.699333 -4.93113
v -6.76148 1.81173 0
vt -0.913683 -6.63432
vn -0.281344 0.0753858 0.956641
vt 0.913683 -6.63432
f 7/19/11 17/20/12 16/21/11

vt -0.699333 -4.93113
f 17/20/12 7/19/11 8/22/12

vt 0.699333 -4.93113
v -6.06218 3.5 0
vt -0.913683 -6.63432
vn -0.252246 0.145634 0.956641
vt 0.913683 -6.63432
f 8/23/12 18/24/13 17/25/12

vt -0.699333 -4.93113
f 18/24/13 8/23/12 9/26/13

vt 0.699333 -4.93113
v -4.94975 4.94975 0
vt -0.913683 -6.63432
vn -0.205958 0.205958 0.956641
vt 0.913683 -6.63432
f 9/27/13 19/28/14 18/29/13

v -3.78854 3.78854 0.5
vt -0.699333 -4.93113
f 19/28/14 9/27/13 20/30/14

usemtl portal
v -3.78854 3.78854 0.0625
vt 0.772588 -0.220068
vn 0.707107 -0.707107 1.88889e-015
vt 0.772588 -0.220068
f 9/5/6 21/31/15 20/32/15

f 21/31/15 9/5/6 10/5/6

f 10/5/1 11/6/1 21/31/1

v -2.6789 -4.63999 0.0625
vt 0.694759 -0.835615
f 21/31/1 11/6/1 22/33/1

vn 0.5 0.866025 -1.35201e-015
f 12/6/7 22/33/16 11/6/7

v -2.6789 -4.63999 0.5
f 22/33/16 12/6/7 23/33/16

usemtl _Charcoal_
vt -0.699333 -4.93113
v -3.5 -6.06218 0
vt 0.913683 -6.63432
vn -0.145634 -0.252246 0.956641
vt 0.699333 -4.93113
f 12/34/9 24/35/17 23/36/17

vt -0.913683 -6.63432
f 24/35/17 12/34/9 13/37/9

v -1.81173 -6.76148 0
vt 0.913683 -6.63432
vn -0.0753858 -0.281344 0.956641
vt -0.699333 -4.93113
vt -0.913683 -6.63432
f 25/38/18 23/39/17 24/40/17

v -1.3867 -5.17524 0.5
vt 0.699333 -4.93113
f 23/39/17 25/38/18 26/41/18

v 0 -7 0
vt 0.913683 -6.63432
vn 0 -0.291268 0.956641
vt -0.699333 -4.93113
vt -0.913683 -6.63432
f 27/42/19 26/43/18 25/44/18

v 8.88178e-016 -5.3578 0.5
vt 0.699333 -4.93113
f 26/43/18 27/42/19 28/45/19

v 1.81173 -6.76148 0
vt 0.913683 -6.63432
vn 0.0753858 -0.281344 0.956641
vt -0.699333 -4.93113
vt -0.913683 -6.63432
f 29/46/20 28/47/19 27/48/19

v 1.3867 -5.17524 0.5
vt 0.699333 -4.93113
f 28/47/19 29/46/20 30/49/20

vt -0.913683 -6.63432
v 2.6789 -4.63999 0.5
vt 0.699333 -4.93113
vn 0.145634 -0.252246 0.956641
vt -0.699333 -4.93113
f 29/50/20 31/51/21 30/52/20

v 3.5 -6.06218 0
vt 0.913683 -6.63432
f 31/51/21 29/50/20 32/53/21

vt -0.913683 -6.63432
v 3.78854 -3.78854 0.5
vt 0.699333 -4.93113
vn 0.205958 -0.205958 0.956641
vt -0.699333 -4.93113
f 32/54/21 33/55/22 31/56/21

v 4.94975 -4.94975 0
vt 0.913683 -6.63432
f 33/55/22 32/54/21 34/57/22

vt -0.913683 -6.63432
v 4.63999 -2.6789 0.5
vt 0.699333 -4.93113
vn 0.252246 -0.145634 0.956641
vt -0.699333 -4.93113
f 34/58/22 35/59/23 33/60/22

v 6.06218 -3.5 0
vt 0.913683 -6.63432
f 35/59/23 34/58/22 36/61/23

vt -0.913683 -6.63432
v 5.17524 -1.3867 0.5
vt 0.699333 -4.93113
vn 0.281344 -0.0753858 0.956641
vt -0.699333 -4.93113
f 36/62/23 37/63/24 35/64/23

v 6.76148 -1.81173 0
vt 0.913683 -6.63432
f 37/63/24 36/62/23 38/65/24

vt -0.913683 -6.63432
v 5.3578 -1.11022e-016 0.5
vt 0.699333 -4.93113
vn 0.291268 3.472e-018 0.956641
vt -0.699333 -4.93113
f 38/66/24 39/67/25 37/68/24

v 7 -4.28626e-016 0
vt 0.913683 -6.63432
f 39/67/25 38/66/24 40/69/25

v 6.76148 1.81173 0
vt 0.913683 -6.63432
vn 0.281344 0.0753858 0.956641
vt -0.699333 -4.93113
vt -0.913683 -6.63432
f 41/70/26 39/71/25 40/72/25

v 5.17524 1.3867 0.5
vt 0.699333 -4.93113
f 39/71/25 41/70/26 42/73/26

v 6.06218 3.5 0
vt 0.913683 -6.63432
vn 0.252246 0.145634 0.956641
vt -0.699333 -4.93113
vt -0.913683 -6.63432
f 43/74/27 42/75/26 41/76/26

v 4.63999 2.6789 0.5
vt 0.699333 -4.93113
f 42/75/26 43/74/27 44/77/27

v 4.94975 4.94975 0
vt 0.913683 -6.63432
vn 0.205958 0.205958 0.956641
vt -0.699333 -4.93113
vt -0.913683 -6.63432
f 45/78/28 44/79/27 43/80/27

v 3.78854 3.78854 0.5
vt 0.699333 -4.93113
f 44/79/27 45/78/28 46/81/28

v 3.5 6.06218 0
vt 0.913683 -6.63432
vn 0.145634 0.252246 0.956641
vt -0.699333 -4.93113
vt -0.913683 -6.63432
f 47/82/29 46/83/28 45/84/28

v 2.6789 4.63999 0.5
vt 0.699333 -4.93113
f 46/83/28 47/82/29 48/85/29

v 1.81173 6.76148 0
vt 0.913683 -6.63432
vn 0.0753858 0.281344 0.956641
vt -0.699333 -4.93113
vt -0.913683 -6.63432
f 49/86/30 48/87/29 47/88/29

v 1.3867 5.17524 0.5
vt 0.699333 -4.93113
f 48/87/29 49/86/30 50/89/30

vt -0.913683 -6.63432
v 8.88178e-016 5.3578 0.5
vt 0.699333 -4.93113
vn 3.472e-018 0.291268 0.956641
vt -0.699333 -4.93113
f 49/90/30 51/91/31 50/92/30

v 8.57253e-016 7 0
vt 0.913683 -6.63432
f 51/91/31 49/90/30 52/93/31

vt -0.913683 -6.63432
v -1.3867 5.17524 0.5
vt 0.699333 -4.93113
vn -0.0753858 0.281344 0.956641
vt -0.699333 -4.93113
f 52/94/31 53/95/32 51/96/31

v -1.81173 6.76148 0
vt 0.913683 -6.63432
f 53/95/32 52/94/31 54/97/32

vt -0.913683 -6.63432
v -2.6789 4.63999 0.5
vt 0.699333 -4.93113
vn -0.145634 0.252246 0.956641
vt -0.699333 -4.93113
f 54/98/32 55/99/33 53/100/32

v -3.5 6.06218 0
vt 0.913683 -6.63432
f 55/99/33 54/98/32 56/101/33

vt -0.913683 -6.63432
vt 0.699333 -4.93113
vt -0.699333 -4.93113
f 56/102/33 20/103/14 55/104/33

vt 0.913683 -6.63432
f 20/103/14 56/102/33 19/105/14

usemtl portal
vt 0.694759 -0.157885
vn 0.5 -0.866025 2.84027e-015
f 21/31/15 55/106/34 20/32/15

v -2.6789 4.63999 0.0625
vt 0.694759 -0.157885
f 55/106/34 21/31/15 57/107/34

f 21/31/1 22/33/1 57/107/1

v -1.3867 -5.17524 0.0625
vt 0.604125 -0.874705
f 57/107/1 22/33/1 58/108/1

vn 0.258819 0.965926 -2.46848e-015
f 23/33/16 58/108/35 22/33/16

f 58/108/35 23/33/16 26/108/35

v 9.07265e-016 -5.3578 0.0625
vt 0.506864 -0.888037
vn 1.53973e-016 1 -3.53362e-015
f 26/108/35 59/109/36 58/108/35

vt 0.506864 -0.888037
f 59/109/36 26/108/35 28/110/36

v 1.3867 -5.17524 0.0625
vt 0.409602 -0.874705
vn -0.258819 0.965926 -3.48583e-015
f 28/110/36 60/111/37 59/109/36

vt 0.409602 -0.874705
f 60/111/37 28/110/36 30/112/37

v 2.6789 -4.63999 0.0625
vt 0.318968 -0.835615
vn -0.5 0.866025 -2.2398e-015
f 30/112/37 61/113/38 60/111/37

f 61/113/38 30/112/37 31/113/38

v 3.78854 -3.78854 0.0625
vt 0.241139 -0.773432
vn -0.707107 0.707107 -9.20819e-016
f 31/113/38 62/114/39 61/113/38

f 62/114/39 31/113/38 33/114/39

v 4.63999 -2.6789 0.0625
vt 0.181419 -0.692394
vn -0.866025 0.5 -6.28759e-016
f 33/114/39 63/115/40 62/114/39

f 63/115/40 33/114/39 35/115/40

vt 0.143878 -0.598022
vn -0.965926 0.258819 -9.80474e-016
f 37/116/41 63/115/40 35/115/40

v 5.17524 -1.3867 0.0625
vt 0.143878 -0.598022
f 63/115/40 37/116/41 64/117/41

vt 0.131073 -0.49675
vn -1 0 -1.06279e-015
f 39/118/42 64/117/41 37/116/41

v 5.3578 -6.44957e-017 0.0625
f 64/117/41 39/118/42 65/118/42

vt 0.143878 -0.395477
vn -0.965926 -0.258819 -1.16813e-015
f 42/119/43 65/118/42 39/118/42

v 5.17524 1.3867 0.0625
f 65/118/42 42/119/43 66/119/43

vt 0.18142 -0.301106
vn -0.866025 -0.5 -4.57056e-016
f 44/120/44 66/119/43 42/119/43

v 4.63999 2.6789 0.0625
f 66/119/43 44/120/44 67/120/44

vt 0.24114 -0.220068
vn -0.707107 -0.707107 1.17113e-015
f 46/121/45 67/120/44 44/120/44

v 3.78854 3.78854 0.0625
f 67/120/44 46/121/45 68/121/45

v 2.6789 4.63999 0.0625
vt 0.318969 -0.157885
vn -0.5 -0.866025 2.49011e-015
f 46/121/45 69/122/46 68/121/45

vt 0.318969 -0.157885
f 69/122/46 46/121/45 48/123/46

v 1.3867 5.17524 0.0625
vt 0.409602 -0.118795
vn -0.258819 -0.965926 3.01648e-015
f 48/123/46 70/124/47 69/122/46

vt 0.409602 -0.118795
f 70/124/47 48/123/46 50/125/47

v 9.07265e-016 5.3578 0.0625
vt 0.506864 -0.105462
vn 2.65953e-016 -1 3.06427e-015
f 50/125/47 71/126/48 70/124/47

vt 0.506864 -0.105462
f 71/126/48 50/125/47 51/127/48

v -1.3867 5.17524 0.0625
vt 0.604126 -0.118795
vn 0.258819 -0.965926 2.94142e-015
f 51/127/48 72/128/49 71/126/48

f 72/128/49 51/127/48 53/128/49

f 53/128/49 57/107/34 72/128/49

f 57/107/34 53/128/49 55/106/34

f 57/107/1 58/108/1 72/128/1

f 72/128/1 58/108/1 59/109/1

f 72/128/1 59/109/1 71/126/1

f 71/126/1 59/109/1 60/111/1

f 71/126/1 60/111/1 70/124/1

f 70/124/1 60/111/1 61/113/1

f 70/124/1 61/113/1 69/122/1

f 69/122/1 61/113/1 62/114/1

f 69/122/1 62/114/1 68/121/1

f 68/121/1 62/114/1 63/115/1

f 68/121/1 63/115/1 67/120/1

f 67/120/1 63/115/1 64/117/1

f 67/120/1 64/117/1 66/119/1

f 66/119/1 64/117/1 65/118/1

