# Alias OBJ Model File
# Exported from SketchUp, (c) 2000-2006 Google, Inc.
# File units = inches

mtllib rondelleTroll.mtl

g Mesh1 Group1 Model

usemtl TrollFace
v -4.94975 -4.94975 1
vt 0.249912 0.222757
vn 0 0 1
v -3.5 -6.06218 1
vt 0.332447 0.159426
v -1.81173 -6.76148 1
vt 0.428562 0.119614
v 0 -7 1
vt 0.531705 0.106035
v 1.81173 -6.76148 1
vt 0.634848 0.119614
v 3.5 -6.06218 1
vt 0.730963 0.159426
v 4.94975 -4.94975 1
vt 0.813498 0.222757
v 6.06218 -3.5 1
vt 0.87683 0.305292
v 6.76148 -1.81173 1
vt 0.916642 0.401407
v 7 0 1
vt 0.930221 0.50455
v 6.76148 1.81173 1
vt 0.916642 0.607693
v 6.06218 3.5 1
vt 0.87683 0.703808
v 4.94975 4.94975 1
vt 0.813498 0.786343
v 3.5 6.06218 1
vt 0.730963 0.849675
v 1.81173 6.76148 1
vt 0.634849 0.889487
v 8.88178e-016 7 1
vt 0.531705 0.903066
v -1.81173 6.76148 1
vt 0.428562 0.889487
v -3.5 6.06218 1
vt 0.332448 0.849675
v -4.94975 4.94975 1
vt 0.249912 0.786343
v -6.06218 3.5 1
vt 0.186581 0.703808
v -6.76148 1.81173 1
vt 0.146769 0.607694
v -7 1.77636e-015 1
vt 0.13319 0.50455
v -6.76148 -1.81173 1
vt 0.146769 0.401407
v -6.06218 -3.5 1
vt 0.18658 0.305292
f 1/1/1 2/2/1 3/3/1 4/4/1 5/5/1 6/6/1 7/7/1 8/8/1 9/9/1 10/10/1 11/11/1 12/12/1 13/13/1 14/14/1 15/15/1 16/16/1 17/17/1 18/18/1 19/19/1 20/20/1 21/21/1 22/22/1 23/23/1 24/24/1 

g Mesh2 Group1 Model

v -3.5 -6.06218 0.75
vt 0.751376 0.0460514
vn 0 0 -1
v -4.94975 -4.94975 0.75
vt 0.853532 0.124438
v -6.06218 -3.5 0.75
vt 0.931918 0.226593
v -6.76148 -1.81173 0.75
vt 0.981194 0.345555
v -7 1.77636e-015 0.75
vt 0.998001 0.473217
v -6.76148 1.81173 0.75
vt 0.981194 0.600879
v -6.06218 3.5 0.75
vt 0.931918 0.719841
v -4.94975 4.94975 0.75
vt 0.853532 0.821996
v -3.5 6.06218 0.75
vt 0.751377 0.900383
v -1.81173 6.76148 0.75
vt 0.632415 0.949658
v 8.88178e-016 7 0.75
vt 0.504752 0.966465
v 1.81173 6.76148 0.75
vt 0.37709 0.949658
v 3.5 6.06218 0.75
vt 0.258128 0.900383
v 4.94975 4.94975 0.75
vt 0.155973 0.821996
v 6.06218 3.5 0.75
vt 0.0775866 0.719841
v 6.76148 1.81173 0.75
vt 0.0283108 0.600879
v 7 0 0.75
vt 0.0115037 0.473217
v 6.76148 -1.81173 0.75
vt 0.0283107 0.345555
v 6.06218 -3.5 0.75
vt 0.0775864 0.226593
v 4.94975 -4.94975 0.75
vt 0.155973 0.124438
v 3.5 -6.06218 0.75
vt 0.258128 0.0460514
v 1.81173 -6.76148 0.75
vt 0.37709 -0.00322436
v 0 -7 0.75
vt 0.504752 -0.0200314
v -1.81173 -6.76148 0.75
vt 0.632414 -0.00322436
f 25/25/2 26/26/2 27/27/2 28/28/2 29/29/2 30/30/2 31/31/2 32/32/2 33/33/2 34/34/2 35/35/2 36/36/2 37/37/2 38/38/2 39/39/2 40/40/2 41/41/2 42/42/2 43/43/2 44/44/2 45/45/2 46/46/2 47/47/2 48/48/2 

g Mesh3 Group3 Group2 Model

usemtl _Charcoal_
v 7.72741 -2.07055 0
vt 19.7857 0
vn 0.229921 -0.973209 0
v 10.5902 -1.39422 1
vt 22.7273 1
v 7.72741 -2.07055 2
vt 19.7857 2
f 49/49/3 50/50/3 51/51/3

v 8 -1.59872e-014 0
vt 12.9261 16.0224
vn 0.338819 -0.0446064 -0.939793
vt 11.8819 18.9486
vt 10.8377 16.0224
f 52/52/4 50/53/4 49/54/4

vt -11.35 0
vn 0.823099 0.567898 0
v 8 -1.59872e-014 2
vt -11.35 2
vt -14.2915 1
vn 0.473971 0.88054 0
f 52/55/5 53/56/5 50/57/6

vt 8.07307 0
v 7.72741 2.07055 0
vt 10.1615 0
vn 0.991445 0.130526 0
v 7.72741 2.07055 2
vt 10.1615 2
vt 8.07307 2
f 52/58/5 54/59/7 55/60/7 53/61/5 

vt -18.3176 8.51962
vt -18.3176 12.6607
vt -18.5902 10.5902
f 49/62/2 54/63/2 52/64/2

v 7 -1.77636e-015 0
vt -17.5902 10.5902
f 49/62/2 56/65/2 54/63/2

v 6.9282 -4 0
vt -17.5184 6.59018
f 57/66/2 56/65/2 49/62/2

v 6.76148 -1.81173 0
vt -17.3517 8.77844
f 57/66/2 58/67/2 56/65/2

v 6.06218 -3.5 0
vt -16.6524 7.09018
f 57/66/2 59/68/2 58/67/2

v 5.65685 -5.65685 0
vt -16.247 4.93332
f 60/69/2 59/68/2 57/66/2

v 4.94975 -4.94975 0
vt -15.5399 5.64043
f 60/69/2 61/70/2 59/68/2

v 4 -6.9282 0
vt -14.5902 3.66197
f 62/71/2 61/70/2 60/69/2

v 3.5 -6.06218 0
vt -14.0902 4.528
f 62/71/2 63/72/2 61/70/2

v 2.07055 -7.72741 0
vt -12.6607 2.86277
f 64/73/2 63/72/2 62/71/2

v 1.81173 -6.76148 0
vt -12.4019 3.8287
f 64/73/2 65/74/2 63/72/2

v 0 -8 0
vt -10.5902 2.59018
f 66/75/2 65/74/2 64/73/2

v 0 -7 0
vt -10.5902 3.59018
f 66/75/2 67/76/2 65/74/2

v -1.81173 -6.76148 0
vt -8.77844 3.8287
f 66/75/2 68/77/2 67/76/2

v -2.07055 -7.72741 0
vt -8.51962 2.86277
f 69/78/2 68/77/2 66/75/2

v -3.5 -6.06218 0
vt -7.09018 4.528
f 69/78/2 70/79/2 68/77/2

v -4 -6.9282 0
vt -6.59018 3.66197
f 71/80/2 70/79/2 69/78/2

v -4.94975 -4.94975 0
vt -5.64043 5.64043
f 71/80/2 72/81/2 70/79/2

v -5.65685 -5.65685 0
vt -4.93332 4.93332
f 73/82/2 72/81/2 71/80/2

v -6.06218 -3.5 0
vt -4.528 7.09018
f 73/82/2 74/83/2 72/81/2

v -6.76148 -1.81173 0
vt -3.8287 8.77844
f 73/82/2 75/84/2 74/83/2

v -6.9282 -4 0
vt -3.66197 6.59018
f 76/85/2 75/84/2 73/82/2

v -7 0 0
vt -3.59018 10.5902
f 76/85/2 77/86/2 75/84/2

v -7.72741 2.07055 0
vt -2.86277 12.6607
f 76/85/2 78/87/2 77/86/2

v -7.72741 -2.07055 0
vt -2.86277 8.51962
f 79/88/2 78/87/2 76/85/2

v -8 1.06581e-014 0
vt -2.59018 10.5902
f 78/87/2 79/88/2 80/89/2

vt -10.1615 0
vn -0.823099 -0.567898 0
vt -8.07307 0
vn -0.991445 -0.130526 0
v -7.72741 -2.07055 2
vt -8.07307 2
v -8 1.06581e-014 2
vt -10.1615 2
f 80/90/8 79/91/9 81/92/9 82/93/8 

vt -7.9258 0
vn -0.685722 0.727864 0
v -9.86847 -4.08766 1
vt -4.98422 1
vt -7.9258 2
f 79/94/10 83/95/10 81/96/10

vt -4.68715 -5.54964
vn -0.315729 -0.130779 -0.939793
vt -5.73136 -2.62347
vt -6.77557 -5.54964
f 76/97/11 83/98/11 79/99/11

vt 3.85673 0
vn -0.428875 -0.903364 0
v -6.9282 -4 2
vt 3.85673 2
vt 0.91515 1
vn 0.0297989 -0.999556 0
f 76/100/12 84/101/12 83/102/13

vt -2.99907 0
vt -0.910651 0
vn -0.793353 -0.608761 0
v -5.65685 -5.65685 2
vt -0.910651 2
vt -2.99907 2
f 76/103/12 73/104/14 85/105/14 84/106/12 

vt -6.14333 0
vn -0.957784 0.287488 0
v -6.50252 -8.47425 1
vt -3.20175 1
vt -6.14333 2
f 73/107/15 86/108/15 85/109/15

vt 2.99907 -6.50063
vn -0.20804 -0.271123 -0.939793
vt 1.95486 -3.57446
vt 0.910651 -6.50063
f 71/110/16 86/111/16 73/112/16

vt 7.53121 0
vn 0.080265 -0.996774 0
v -4 -6.9282 2
vt 7.53121 2
vt 4.58964 1
vn 0.525585 -0.850741 0
f 71/113/17 87/114/17 86/115/18

vt 4.68715 0
vt 6.77557 0
vn -0.382683 -0.92388 0
v -2.07055 -7.72741 2
vt 6.77557 2
vt 4.68715 2
f 71/116/17 69/117/19 88/118/19 87/119/17 

vt -0.827237 0
vn -0.973209 -0.229921 0
v -1.39422 -10.5902 1
vt 2.11434 1
vt -0.827237 2
f 69/120/20 89/121/20 88/122/20

vt 10.1615 -3.71248
vn -0.0446064 -0.338819 -0.939793
vt 9.11728 -0.786303
vt 8.07307 -3.71248
f 66/123/21 89/124/21 69/125/21

vt 7.3002 0
vn 0.567898 -0.823099 0
v 0 -8 2
vt 7.3002 2
vt 4.35862 1
vn 0.88054 -0.473971 0
f 66/126/22 90/127/22 89/128/23

vt 10.8377 0
vt 12.9261 0
vn 0.130526 -0.991445 0
v 2.07055 -7.72741 2
vt 12.9261 2
vt 10.8377 2
f 66/129/22 64/130/24 91/131/24 90/132/22 

vt 6.59803 0
vn -0.727864 -0.685722 0
v 4.08766 -9.86847 1
vt 9.53961 1
vt 6.59803 2
f 64/133/25 92/134/25 91/135/25

vt 14.8809 2.06773
vn 0.130779 -0.315729 -0.939793
vt 13.8367 4.99391
vt 12.7925 2.06773
f 62/136/26 92/137/26 64/138/26

vt 3.22558 0
vn 0.903364 -0.428875 0
v 4 -6.9282 2
vt 3.22558 2
vt 0.284 1
vn 0.999556 0.0297989 0
f 62/139/27 93/140/27 92/141/28

vt 13.8044 0
vt 15.8929 0
vn 0.608761 -0.793353 0
v 5.65685 -5.65685 2
vt 15.8929 2
vt 13.8044 2
f 62/142/27 60/143/29 94/144/29 93/145/27 

vt 14.1429 0
vn -0.287488 -0.957784 0
v 8.47425 -6.50252 1
vt 17.0845 1
vt 14.1429 2
f 60/146/30 95/147/30 94/148/30

vt 15.8929 9.29119
vn 0.271123 -0.20804 -0.939793
vt 14.8486 12.2174
vt 13.8044 9.29119
f 57/149/31 95/150/31 60/151/31

vt -3.60085 0
vn 0.996774 0.080265 0
v 6.9282 -4 2
vt -3.60085 2
vt -6.54243 1
vn 0.850741 0.525585 0
f 57/152/32 96/153/32 95/154/33

vt 12.7925 0
vt 14.8809 0
vn 0.92388 -0.382683 0
vt 14.8809 2
vt 12.7925 2
f 57/155/32 49/156/34 51/157/34 96/158/32 

v 7 -1.77636e-015 2
vt 17.5902 10.5902
vt 17.5184 6.59018
vt 18.3176 8.51962
f 97/159/1 96/160/1 51/161/1

v 6.76148 -1.81173 2
vt 17.3517 8.77844
f 98/162/1 96/160/1 97/159/1

v 6.06218 -3.5 2
vt 16.6524 7.09018
f 99/163/1 96/160/1 98/162/1

vt 16.247 4.93332
f 99/163/1 94/164/1 96/160/1

v 4.94975 -4.94975 2
vt 15.5399 5.64043
f 100/165/1 94/164/1 99/163/1

vt 14.5902 3.66197
f 100/165/1 93/166/1 94/164/1

v 3.5 -6.06218 2
vt 14.0902 4.528
f 101/167/1 93/166/1 100/165/1

vt 12.6607 2.86277
f 101/167/1 91/168/1 93/166/1

v 1.81173 -6.76148 2
vt 12.4019 3.8287
f 102/169/1 91/168/1 101/167/1

v 0 -7 2
vt 10.5902 3.59018
f 103/170/1 91/168/1 102/169/1

vt 10.5902 2.59018
f 103/170/1 90/171/1 91/168/1

v -1.81173 -6.76148 2
vt 8.77844 3.8287
f 104/172/1 90/171/1 103/170/1

vt 8.51962 2.86277
f 104/172/1 88/173/1 90/171/1

v -3.5 -6.06218 2
vt 7.09018 4.528
f 105/174/1 88/173/1 104/172/1

vt 6.59018 3.66197
f 105/174/1 87/175/1 88/173/1

v -4.94975 -4.94975 2
vt 5.64043 5.64043
f 106/176/1 87/175/1 105/174/1

vt 4.93332 4.93332
f 106/176/1 85/177/1 87/175/1

v -6.06218 -3.5 2
vt 4.528 7.09018
f 107/178/1 85/177/1 106/176/1

v -6.76148 -1.81173 2
vt 3.8287 8.77844
f 108/179/1 85/177/1 107/178/1

vt 3.66197 6.59018
f 108/179/1 84/180/1 85/177/1

v -7 0 2
vt 3.59018 10.5902
f 109/181/1 84/180/1 108/179/1

v -7.72741 2.07055 2
vt 2.86277 12.6607
f 110/182/1 84/180/1 109/181/1

vt 2.86277 8.51962
f 110/182/1 81/183/1 84/180/1

vt 2.59018 10.5902
f 81/183/1 110/182/1 82/184/1

vt -10.8377 1.79782
vn -0.338819 0.0446064 0.939793
vt -12.9261 1.79782
v -10.5902 1.39422 1
vt -11.8819 -1.12836
f 82/185/35 110/186/35 111/187/35

vt -5.69704 0
vn -0.229921 0.973209 0
vt -2.75546 1
vt -5.69704 2
f 78/188/36 111/189/36 110/190/36

vt -10.8377 -1.11433
vn -0.338819 0.0446064 -0.939793
vt -11.8819 1.81184
vt -12.9261 -1.11433
f 80/191/37 111/192/37 78/193/37

vt -2.73869 0
vt -2.73869 2
vt -5.68026 1
vn -0.473971 -0.88054 0
f 80/194/8 82/195/8 111/196/38

v -6.9282 4 0
vt -14.8809 0
vn -0.996774 -0.080265 0
vt -12.7925 0
vn -0.92388 0.382683 0
vt -12.7925 2
v -6.9282 4 2
vt -14.8809 2
f 112/197/39 78/198/40 110/199/40 113/200/39 

vt -3.66197 14.5902
f 112/201/2 77/86/2 78/87/2

v -6.76148 1.81173 0
vt -3.8287 12.4019
f 77/86/2 112/201/2 114/202/2

v -5.65685 5.65685 0
vt -4.93332 16.247
f 114/202/2 112/201/2 115/203/2

vt -13.8044 5.61686
vn -0.271123 0.20804 -0.939793
v -8.47425 6.50252 1
vt -14.8486 8.54304
vt -15.8929 5.61686
f 112/204/41 116/205/41 115/206/41

vt -10.4878 0
vt -10.4878 2
vt -13.4294 1
vn -0.850741 -0.525585 0
f 112/207/39 113/208/39 116/209/42

vt -13.8044 -4.93338
vn -0.271123 0.20804 0.939793
v -5.65685 5.65685 2
vt -15.8929 -4.93338
vt -14.8486 -7.85955
f 113/210/43 117/211/43 116/212/43

vt 3.66197 14.5902
v -6.76148 1.81173 2
vt 3.8287 12.4019
vt 4.93332 16.247
f 113/213/1 118/214/1 117/215/1

f 113/213/1 109/181/1 118/214/1

f 109/181/1 113/213/1 110/182/1

vt 10.9682 0
vn 1 5.59902e-017 0
vt 12.7956 0
vn 0.965926 -0.258819 0
vt 12.7956 2
vt 10.9682 2
f 77/216/44 114/217/45 118/218/45 109/219/44 

vt 12.923 0
v -6.06218 3.5 0
vt 14.7504 0
vn 0.866025 -0.5 0
v -6.06218 3.5 2
vt 14.7504 2
vt 12.923 2
f 114/220/45 119/221/46 120/222/46 118/223/45 

vt -4.528 14.0902
f 114/202/2 115/203/2 119/224/2

v -4.94975 4.94975 0
vt -5.64043 15.5399
f 119/224/2 115/203/2 121/225/2

v -4 6.9282 0
vt -6.59018 17.5184
f 121/225/2 115/203/2 122/226/2

vt -15.8929 0
vn -0.903364 0.428875 0
vt -13.8044 0
vn -0.608761 0.793353 0
vt -13.8044 2
v -4 6.9282 2
vt -15.8929 2
f 122/227/47 115/228/48 117/229/48 123/230/47 

vt -0.0542393 0
vn 0.287488 0.957784 0
vt 2.88734 1
vt -0.0542393 2
f 115/231/49 116/232/49 117/233/49

v -4.94975 4.94975 2
vt 5.64043 15.5399
vt 6.59018 17.5184
f 117/215/1 124/234/1 123/235/1

vt 4.528 14.0902
f 117/215/1 120/236/1 124/234/1

f 117/215/1 118/214/1 120/236/1

vt 13.935 0
vt 15.7623 0
vn 0.707107 -0.707107 0
vt 15.7623 2
vt 13.935 2
f 119/237/46 121/238/50 124/239/50 120/240/46 

vt 13.935 0
v -3.5 6.06218 0
vt 15.7623 0
vn 0.5 -0.866025 0
v -3.5 6.06218 2
vt 15.7623 2
vt 13.935 2
f 121/241/50 125/242/51 126/243/51 124/244/50 

vt -7.09018 16.6524
f 121/225/2 122/226/2 125/245/2

v -2.07055 7.72741 0
vt -8.51962 18.3176
f 125/245/2 122/226/2 127/246/2

vt -12.7925 12.8403
vn -0.130779 0.315729 -0.939793
v -4.08766 9.86847 1
vt -13.8367 15.7665
vt -14.8809 12.8403
f 122/247/52 128/248/52 127/249/52

vt -17.3142 0
vt -17.3142 2
vt -20.2558 1
vn -0.999556 -0.0297989 0
f 122/250/47 123/251/47 128/252/53

vt -12.7925 -12.1568
vn -0.130779 0.315729 0.939793
v -2.07055 7.72741 2
vt -14.8809 -12.1568
vt -13.8367 -15.083
f 123/253/54 129/254/54 128/255/54

vt 7.09018 16.6524
vt 8.51962 18.3176
f 123/235/1 126/256/1 129/257/1

f 123/235/1 124/234/1 126/256/1

v -1.81173 6.76148 2
vt 8.77844 17.3517
f 129/257/1 126/256/1 130/258/1

v -1.81173 6.76148 0
vn 0.258819 -0.965926 0
f 125/220/51 131/221/55 130/222/55 126/223/51 

vt -8.77844 17.3517
f 125/245/2 127/246/2 131/259/2

v 5.32907e-015 8 0
vt -10.5902 18.5902
f 131/259/2 127/246/2 132/260/2

vt -12.9261 0
vn -0.567898 0.823099 0
vt -10.8377 0
vn -0.130526 0.991445 0
vt -10.8377 2
v 5.32907e-015 8 2
vt -12.9261 2
f 132/261/56 127/262/57 129/263/57 133/264/56 

vt 7.49061 0
vn 0.727864 0.685722 0
vt 10.4322 1
vt 7.49061 2
f 127/265/58 128/266/58 129/267/58

vt 10.5902 18.5902
f 129/257/1 130/258/1 133/268/1

v 0 7 2
vt 10.5902 17.5902
f 133/268/1 130/258/1 134/269/1

vt 10.9682 0
v 0 7 0
vt 12.7956 0
vn -2.79951e-017 -1 0
vt 12.7956 2
vt 10.9682 2
f 131/270/55 135/271/59 134/272/59 130/273/55 

vt -10.5902 17.5902
f 131/259/2 132/260/2 135/274/2

v 1.81173 6.76148 0
vt -12.4019 17.3517
f 135/274/2 132/260/2 136/275/2

v 2.07055 7.72741 0
vt -12.6607 18.3176
f 136/275/2 132/260/2 137/276/2

vt -8.07307 18.6205
vn 0.0446064 0.338819 -0.939793
v 1.39422 10.5902 1
vt -9.11728 21.5467
vt -10.1615 18.6205
f 132/277/60 138/278/60 137/279/60

vt -21.3888 0
vt -21.3888 2
vt -24.3304 1
vn -0.88054 0.473971 0
f 132/280/56 133/281/56 138/282/61

vt -8.07307 -17.937
vn 0.0446064 0.338819 0.939793
v 2.07055 7.72741 2
vt -10.1615 -17.937
vt -9.11728 -20.8632
f 133/283/62 139/284/62 138/285/62

v 1.81173 6.76148 2
vt 12.4019 17.3517
vt 12.6607 18.3176
f 133/268/1 140/286/1 139/287/1

f 133/268/1 134/269/1 140/286/1

vt 8.2036 0
vt 10.031 0
vn -0.258819 -0.965926 0
vt 10.031 2
vt 8.2036 2
f 135/288/59 136/289/63 140/290/63 134/291/59 

vt 4.81768 0
v 3.5 6.06218 0
vt 6.64505 0
vn -0.5 -0.866025 0
v 3.5 6.06218 2
vt 6.64505 2
vt 4.81768 2
f 136/292/63 141/293/64 142/294/64 140/295/63 

vt -14.0902 16.6524
f 136/275/2 137/276/2 141/296/2

v 4 6.9282 0
vt -14.5902 17.5184
f 141/296/2 137/276/2 143/297/2

vt -6.77557 0
vn -0.080265 0.996774 0
vt -4.68715 0
vn 0.382683 0.92388 0
vt -4.68715 2
v 4 6.9282 2
vt -6.77557 2
f 143/298/65 137/299/66 139/300/66 144/301/65 

vt 14.9159 0
vn 0.973209 0.229921 0
vt 17.8575 1
vt 14.9159 2
f 137/302/67 138/303/67 139/304/67

vt 14.0902 16.6524
vt 14.5902 17.5184
f 139/287/1 142/305/1 144/306/1

f 139/287/1 140/286/1 142/305/1

v 4.94975 4.94975 2
vt 15.5399 15.5399
f 144/306/1 142/305/1 145/307/1

vt 1.04118 0
v 4.94975 4.94975 0
vt 2.86854 0
vn -0.707107 -0.707107 0
vt 2.86854 2
vt 1.04118 2
f 141/308/64 146/309/68 145/310/68 142/311/64 

vt -15.5399 15.5399
f 141/296/2 143/297/2 146/312/2

v 5.65685 5.65685 0
vt -16.247 16.247
f 146/312/2 143/297/2 147/313/2

vt -0.910651 21.4087
vn 0.20804 0.271123 -0.939793
v 6.50252 8.47425 1
vt -1.95486 24.3349
vt -2.99907 21.4087
f 143/314/69 148/315/69 147/316/69

vt -21.6199 0
vt -21.6199 2
vt -24.5614 1
vn -0.525585 0.850741 0
f 143/317/65 144/318/65 148/319/70

vt -0.910651 -20.7252
vn 0.20804 0.271123 0.939793
v 5.65685 5.65685 2
vt -2.99907 -20.7252
vt -1.95486 -23.6514
f 144/320/71 149/321/71 148/322/71

vt 16.247 16.247
f 144/306/1 145/307/1 149/323/1

v 6.06218 3.5 2
vt 16.6524 14.0902
f 149/323/1 145/307/1 150/324/1

vt -2.86854 0
v 6.06218 3.5 0
vt -1.04118 0
vn -0.866025 -0.5 0
vt -1.04118 2
vt -2.86854 2
f 146/325/68 151/326/72 150/327/72 145/328/68 

vt -16.6524 14.0902
f 146/312/2 147/313/2 151/329/2

v 6.9282 4 0
vt -17.5184 14.5902
f 151/329/2 147/313/2 152/330/2

vt 0.910651 0
vn 0.428875 0.903364 0
vt 2.99907 0
vn 0.793353 0.608761 0
vt 2.99907 2
v 6.9282 4 2
vt 0.910651 2
f 152/331/73 147/332/74 149/333/74 153/334/73 

vt 20.232 0
vn 0.957784 -0.287488 0
vt 23.1735 1
vt 20.232 2
f 147/335/75 148/336/75 149/337/75

vt 17.5184 14.5902
f 149/323/1 150/324/1 153/338/1

v 6.76148 1.81173 2
vt 17.3517 12.4019
f 153/338/1 150/324/1 154/339/1

vt -6.64505 0
v 6.76148 1.81173 0
vt -4.81768 0
vn -0.965926 -0.258819 0
vt -4.81768 2
vt -6.64505 2
f 151/340/72 155/341/76 154/342/76 150/343/72 

vt -17.3517 12.4019
f 151/329/2 152/330/2 155/344/2

f 155/344/2 152/330/2 56/65/2

f 56/65/2 152/330/2 54/63/2

vt 6.77557 20.4577
vn 0.315729 0.130779 -0.939793
v 9.86847 4.08766 1
vt 5.73136 23.3839
vt 4.68715 20.4577
f 152/345/77 156/346/77 54/347/77

vt -17.9454 0
vt -17.9454 2
vt -20.8869 1
vn -0.0297989 0.999556 0
f 152/348/73 153/349/73 156/350/78

vt 6.77557 -19.7742
vn 0.315729 0.130779 0.939793
vt 4.68715 -19.7742
vt 5.73136 -22.7004
f 153/351/79 55/352/79 156/353/79

vt 18.3176 12.6607
f 153/338/1 97/159/1 55/354/1

f 153/338/1 154/339/1 97/159/1

vt -10.031 0
vt -8.2036 0
vn -1 2.79951e-016 0
vt -8.2036 2
vt -10.031 2
f 155/355/76 56/356/80 97/357/80 154/358/76 

vt -12.7956 0
vt -10.9682 0
vn -0.965926 0.258819 0
vt -10.9682 2
vt -12.7956 2
f 56/359/80 58/360/81 98/361/81 97/362/80 

vt -14.7504 0
vt -12.923 0
vn -0.866025 0.5 0
vt -12.923 2
vt -14.7504 2
f 58/363/81 59/364/82 99/365/82 98/366/81 

vt -15.7623 0
vt -13.935 0
vn -0.707107 0.707107 0
vt -13.935 2
vt -15.7623 2
f 59/367/82 61/368/83 100/369/83 99/370/82 

vn -0.5 0.866025 0
f 61/367/83 63/368/84 101/369/84 100/370/83 

vn -0.258819 0.965926 0
f 63/363/84 65/364/85 102/365/85 101/366/84 

vt -10.9682 0
vn 1.39975e-016 1 0
vt -10.9682 2
f 65/359/85 67/371/86 103/372/86 102/362/85 

vt -10.031 0
vt -8.2036 0
vn 0.258819 0.965926 0
vt -8.2036 2
vt -10.031 2
f 67/373/86 68/374/87 104/375/87 103/376/86 

vt -6.64505 0
vt -4.81768 0
vn 0.5 0.866025 0
vt -4.81768 2
vt -6.64505 2
f 68/377/87 70/378/88 105/379/88 104/380/87 

vt -2.86854 0
vt -1.04118 0
vn 0.707107 0.707107 0
vt -1.04118 2
vt -2.86854 2
f 70/381/88 72/382/89 106/383/89 105/384/88 

vt 1.04118 0
vt 2.86854 0
vn 0.866025 0.5 0
vt 2.86854 2
vt 1.04118 2
f 72/385/89 74/386/90 107/387/90 106/388/89 

vt 4.81768 0
vt 6.64505 0
vn 0.965926 0.258819 0
vt 6.64505 2
vt 4.81768 2
f 74/389/90 75/390/91 108/391/91 107/392/90 

vt 8.2036 0
vt 10.031 0
vt 10.031 2
vt 8.2036 2
f 75/393/91 77/394/44 109/395/44 108/396/91 

f 55/354/1 97/159/1 51/161/1

vt 18.5902 10.5902
f 55/354/1 51/161/1 53/397/1

vt 12.9261 -15.3389
vn 0.338819 -0.0446064 0.939793
vt 10.8377 -15.3389
vt 11.8819 -18.2651
f 53/398/92 51/399/92 50/400/92

vt 22.0144 0
vn 0.685722 -0.727864 0
vt 24.956 1
vt 22.0144 2
f 54/401/93 156/402/93 55/403/93

vt -4.68715 6.23313
vn -0.315729 -0.130779 0.939793
vt -6.77557 6.23313
vt -5.73136 3.30695
f 84/404/94 81/405/94 83/406/94

vt 2.99907 7.18412
vn -0.20804 -0.271123 0.939793
vt 0.910651 7.18412
vt 1.95486 4.25794
f 87/407/95 85/408/95 86/409/95

vt 10.1615 4.39596
vn -0.0446064 -0.338819 0.939793
vt 8.07307 4.39596
vt 9.11728 1.46979
f 90/410/96 88/411/96 89/412/96

vt 14.8809 -1.38424
vn 0.130779 -0.315729 0.939793
vt 12.7925 -1.38424
vt 13.8367 -4.31042
f 93/413/97 91/414/97 92/415/97

vt 15.8929 -8.60771
vn 0.271123 -0.20804 0.939793
vt 13.8044 -8.60771
vt 14.8486 -11.5339
f 96/416/98 94/417/98 95/418/98

