# Alias OBJ Model File
# Exported from SketchUp, (c) 2000-2006 Google, Inc.
# File units = inches

mtllib rondelle.mtl

g Mesh1 Group1 Model

usemtl _Charcoal_
v -6.9282 4 0
vt -1.0718 12
vn 0 0 -1
v -7 0 0
vt -1 8
v -7.72741 2.07055 0
vt -0.272593 10.0706
f 1/1/1 2/2/1 3/3/1

v -6.76148 1.81173 0
vt -1.23852 9.81173
f 2/2/1 1/1/1 4/4/1

v -5.65685 5.65685 0
vt -2.34315 13.6569
f 4/4/1 1/1/1 5/5/1

vt -10.1727 0
vn -0.866025 0.5 0
v -5.65685 5.65685 2
vt -12.2611 2
vn -0.707107 0.707107 0
vt -12.2611 0
f 1/6/2 6/7/3 5/8/3

v -6.9282 4 2
vt -10.1727 2
f 6/7/3 1/6/2 7/9/2

vt -9.40829 0
vn -0.965926 0.258819 0
vt -11.4967 2
vt -11.4967 0
f 3/10/4 7/11/2 1/12/2

v -7.72741 2.07055 2
vt -9.40829 2
f 7/11/2 3/10/4 8/13/4

v -8 0 0
vt -7.93156 0
vn -1 1.53973e-016 0
vt -10.02 2
vt -10.02 0
f 9/14/5 8/15/4 3/16/4

v -8 0 2
vt -7.93156 2
f 8/15/4 9/14/5 10/17/5

v -7.72741 -2.07055 0
vt -5.84314 0
vn -0.965926 -0.258819 0
f 11/18/6 10/17/5 9/14/5

v -7.72741 -2.07055 2
vt -5.84314 2
f 10/17/5 11/18/6 12/19/6

v -6.9282 -4 0
vt -3.28536 0
vn -0.866025 -0.5 0
vt -5.37378 2
vt -5.37378 0
f 13/20/7 12/21/6 11/22/6

v -6.9282 -4 2
vt -3.28536 2
f 12/21/6 13/20/7 14/23/7

v -5.65685 -5.65685 0
vt -0.432526 0
vn -0.707107 -0.707107 0
vt -2.52094 2
vt -2.52094 0
f 15/24/8 14/25/7 13/26/7

v -5.65685 -5.65685 2
vt -0.432526 2
f 14/25/7 15/24/8 16/27/8

vt 0.432526 0
v -4 -6.9282 2
vt 2.52094 2
vn -0.5 -0.866025 0
vt 0.432526 2
f 15/28/8 17/29/9 16/30/8

v -4 -6.9282 0
vt 2.52094 0
f 17/29/9 15/28/8 18/31/9

vt -2.34315 2.34315
v -4.94975 -4.94975 0
vt -3.05025 3.05025
vt -4 1.0718
f 15/32/1 19/33/1 18/34/1

v -6.06218 -3.5 0
vt -1.93782 4.5
f 15/32/1 20/35/1 19/33/1

v -6.76148 -1.81173 0
vt -1.23852 6.18827
f 15/32/1 21/36/1 20/35/1

vt -1.0718 4
f 13/37/1 21/36/1 15/32/1

f 13/37/1 2/2/1 21/36/1

f 13/37/1 3/3/1 2/2/1

vt -0.272593 5.92945
f 11/38/1 3/3/1 13/37/1

vt 0 8
f 3/3/1 11/38/1 9/39/1

vt 7.80103 0
vn 1 5.59902e-017 0
v -6.76148 -1.81173 2
vt 5.97367 2
vn 0.965926 0.258819 0
vt 5.97367 0
f 2/40/10 22/41/11 21/42/11

v -7 0 2
vt 7.80103 2
f 22/41/11 2/40/10 23/43/10

vt 9.88945 0
vn 0.965926 -0.258819 0
vt 8.06209 2
vt 8.06209 0
f 4/44/12 23/45/10 2/46/10

v -6.76148 1.81173 2
vt 9.88945 2
f 23/45/10 4/44/12 24/47/12

v -6.06218 3.5 0
vt 11.3662 0
vn 0.866025 -0.5 0
vt 9.53882 2
vt 9.53882 0
f 25/48/13 24/49/12 4/50/12

v -6.06218 3.5 2
vt 11.3662 2
f 24/49/12 25/48/13 26/51/13

v -4.94975 4.94975 0
vt 12.1306 0
vn 0.707107 -0.707107 0
vt 10.3032 2
vt 10.3032 0
f 27/52/14 26/53/13 25/54/13

v -4.94975 4.94975 2
vt 12.1306 2
f 26/53/13 27/52/14 28/55/14

vt 10.3032 0
v -3.5 6.06218 2
vn 0.5 -0.866025 0
vt 10.3032 2
f 27/56/14 29/55/15 28/57/14

v -3.5 6.06218 0
f 29/55/15 27/56/14 30/52/15

vt -3.05025 12.9497
v -4 6.9282 0
vt -4 14.9282
vt -4.5 14.0622
f 27/58/1 31/59/1 30/60/1

f 27/58/1 5/5/1 31/59/1

vt -1.93782 11.5
f 25/61/1 5/5/1 27/58/1

f 4/4/1 5/5/1 25/61/1

vn -0.5 0.866025 0
f 6/9/3 31/8/16 5/6/3

v -4 6.9282 2
f 31/8/16 6/9/3 32/7/16

vt 2.34315 13.6569
vn 0 0 1
vt 3.05025 12.9497
vt 4 14.9282
f 6/62/17 28/63/17 32/64/17

vt 1.93782 11.5
f 6/62/17 26/65/17 28/63/17

vt 1.23852 9.81173
f 6/62/17 24/66/17 26/65/17

vt 1.0718 12
f 7/67/17 24/66/17 6/62/17

vt 1 8
f 7/67/17 23/68/17 24/66/17

vt 0.272593 10.0706
f 23/68/17 7/67/17 8/69/17

vt 1.0718 4
f 8/69/17 14/70/17 23/68/17

vt 0.272593 5.92945
f 8/69/17 12/71/17 14/70/17

f 12/71/17 8/69/17 10/39/17

vt 1.23852 6.18827
f 23/68/17 14/70/17 22/72/17

vt 2.34315 2.34315
f 22/72/17 14/70/17 16/73/17

v -6.06218 -3.5 2
vt 1.93782 4.5
f 22/72/17 16/73/17 33/74/17

v -4.94975 -4.94975 2
vt 3.05025 3.05025
f 33/74/17 16/73/17 34/75/17

vt 4 1.0718
f 34/75/17 16/73/17 17/76/17

v -3.5 -6.06218 2
vt 4.5 1.93782
f 34/75/17 17/76/17 35/77/17

v -2.07055 -7.72741 2
vt 5.92945 0.272593
f 35/77/17 17/76/17 36/78/17

vt 3.28536 0
vt 5.37378 2
vn -0.258819 -0.965926 0
vt 3.28536 2
f 18/79/9 36/80/18 17/81/9

v -2.07055 -7.72741 0
vt 5.37378 0
f 36/80/18 18/79/9 37/82/18

v -3.5 -6.06218 0
vt -4.5 1.93782
vt -5.92945 0.272593
f 18/34/1 38/83/1 37/84/1

f 18/34/1 19/33/1 38/83/1

vt -0.563052 2
vn 0.707107 0.707107 0
vt -2.39042 0
vn 0.5 0.866025 0
vt -0.563052 0
f 34/85/19 38/86/20 19/87/19

vt -2.39042 2
f 38/86/20 34/85/19 35/88/20

vt -3.41589 2
v -1.81173 -6.76148 0
vt -5.24325 0
vn 0.258819 0.965926 0
vt -3.41589 0
f 35/89/20 39/90/21 38/91/20

v -1.81173 -6.76148 2
vt -5.24325 2
f 39/90/21 35/89/20 40/92/21

vt 6.18827 1.23852
f 35/77/17 36/78/17 40/93/17

v -8.88178e-016 -8 2
vt 8 0
f 40/93/17 36/78/17 41/94/17

vt 5.84314 0
vt 7.93156 2
vn -3.21943e-016 -1 0
vt 5.84314 2
f 37/95/18 41/96/22 36/97/18

v -8.88178e-016 -8 0
vt 7.93156 0
f 41/96/22 37/95/18 42/98/22

vt -6.18827 1.23852
vt -8 0
f 37/84/1 39/99/1 42/100/1

f 37/84/1 38/83/1 39/99/1

v -8.88178e-016 -7 0
vt -8 1
f 42/100/1 39/99/1 43/101/1

vt -5.97367 2
vt -7.80103 0
vn 1.39975e-016 1 0
vt -5.97367 0
f 40/102/21 43/103/23 39/104/21

v -8.88178e-016 -7 2
vt -7.80103 2
f 43/103/23 40/102/21 44/105/23

vt 8 1
f 40/93/17 41/94/17 44/106/17

v 2.07055 -7.72741 2
vt 10.0706 0.272593
f 44/106/17 41/94/17 45/107/17

vt 10.02 2
vn 0.258819 -0.965926 0
f 42/98/22 45/108/24 41/96/22

v 2.07055 -7.72741 0
vt 10.02 0
f 45/108/24 42/98/22 46/109/24

v 1.81173 -6.76148 0
vt -9.81173 1.23852
vt -10.0706 0.272593
f 42/100/1 47/110/1 46/111/1

f 42/100/1 43/101/1 47/110/1

vt -8.06209 2
vt -9.88945 0
vn -0.258819 0.965926 0
vt -8.06209 0
f 44/112/23 47/113/25 43/114/23

v 1.81173 -6.76148 2
vt -9.88945 2
f 47/113/25 44/112/23 48/115/25

vt 9.81173 1.23852
f 44/106/17 45/107/17 48/116/17

v 3.5 -6.06218 2
vt 11.5 1.93782
f 48/116/17 45/107/17 49/117/17

v 4 -6.9282 2
vt 12 1.0718
f 49/117/17 45/107/17 50/118/17

vt 9.40829 0
vt 11.4967 2
vn 0.5 -0.866025 0
vt 9.40829 2
f 46/119/24 50/120/26 45/121/24

v 4 -6.9282 0
vt 11.4967 0
f 50/120/26 46/119/24 51/122/26

v 3.5 -6.06218 0
vt -11.5 1.93782
vt -12 1.0718
f 46/111/1 52/123/1 51/124/1

f 46/111/1 47/110/1 52/123/1

vt -9.53882 2
vt -11.3662 0
vn -0.5 0.866025 0
vt -9.53882 0
f 48/125/25 52/126/27 47/127/25

vt -11.3662 2
f 52/126/27 48/125/25 49/128/27

vt -10.3032 2
v 4.94975 -4.94975 0
vt -12.1306 0
vn -0.707107 0.707107 0
vt -10.3032 0
f 49/129/27 53/130/28 52/131/27

v 4.94975 -4.94975 2
vt -12.1306 2
f 53/130/28 49/129/27 54/132/28

vt 12.9497 3.05025
f 49/117/17 50/118/17 54/133/17

v 5.65685 -5.65685 2
vt 13.6569 2.34315
f 54/133/17 50/118/17 55/134/17

vt 10.1727 0
vt 12.2611 2
vn 0.707107 -0.707107 0
vt 10.1727 2
f 51/135/26 55/136/29 50/137/26

v 5.65685 -5.65685 0
vt 12.2611 0
f 55/136/29 51/135/26 56/138/29

vt -12.9497 3.05025
vt -13.6569 2.34315
f 51/124/1 53/139/1 56/140/1

f 51/124/1 52/123/1 53/139/1

v 6.06218 -3.5 0
vt -14.0622 4.5
f 56/140/1 53/139/1 57/141/1

vt -10.3032 0
v 6.06218 -3.5 2
vn -0.866025 0.5 0
f 53/142/28 58/132/30 57/130/30

vt -10.3032 2
f 58/132/30 53/142/28 54/143/28

vt 14.0622 4.5
f 54/133/17 55/134/17 58/144/17

v 6.9282 -4 2
vt 14.9282 4
f 58/144/17 55/134/17 59/145/17

vt 10.1727 2
v 6.9282 -4 0
vn 0.866025 -0.5 0
f 55/146/29 60/138/31 59/136/31

vt 10.1727 0
f 60/138/31 55/146/29 56/147/29

vt -14.9282 4
f 56/140/1 57/141/1 60/148/1

v 6.76148 -1.81173 0
vt -14.7615 6.18827
f 60/148/1 57/141/1 61/149/1

vt -9.53882 0
v 6.76148 -1.81173 2
vt -11.3662 2
vn -0.965926 0.258819 0
vt -11.3662 0
f 57/150/30 62/151/32 61/152/32

vt -9.53882 2
f 62/151/32 57/150/30 58/153/30

vt 14.7615 6.18827
f 58/144/17 59/145/17 62/154/17

v 7 -8.88178e-016 2
vt 15 8
f 62/154/17 59/145/17 63/155/17

v 7.72741 -2.07055 2
vt 15.7274 5.92945
f 63/155/17 59/145/17 64/156/17

vt 9.40829 2
v 7.72741 -2.07055 0
vn 0.965926 -0.258819 0
f 59/157/31 65/122/33 64/120/33

vt 9.40829 0
f 65/122/33 59/157/31 60/158/31

v 7 -8.88178e-016 0
vt -15 8
vt -15.7274 5.92945
f 60/148/1 66/159/1 65/160/1

f 60/148/1 61/149/1 66/159/1

vt -8.06209 0
vt -9.88945 2
vn -1 2.79951e-016 0
vt -9.88945 0
f 61/161/32 63/162/34 66/163/34

vt -8.06209 2
f 63/162/34 61/161/32 62/164/32

v 6.76148 1.81173 2
vt -7.80103 2
vn -0.965926 -0.258819 0
vt -5.97367 0
vt -5.97367 2
f 67/165/35 66/166/34 63/167/34

v 6.76148 1.81173 0
vt -7.80103 0
f 66/166/34 67/165/35 68/168/35

v 6.06218 3.5 2
vt -5.24325 2
vn -0.866025 -0.5 0
vt -3.41589 0
vt -3.41589 2
f 69/169/36 68/170/35 67/171/35

v 6.06218 3.5 0
vt -5.24325 0
f 68/170/35 69/169/36 70/172/36

v 4.94975 4.94975 2
vt -2.39042 2
vn -0.707107 -0.707107 0
vt -0.563052 0
vt -0.563052 2
f 71/173/37 70/174/36 69/175/36

v 4.94975 4.94975 0
vt -2.39042 0
f 70/174/36 71/173/37 72/176/37

vt 2.39042 2
v 3.5 6.06218 0
vt 0.563052 0
vn -0.5 -0.866025 0
vt 2.39042 0
f 71/177/37 73/178/38 72/179/37

v 3.5 6.06218 2
vt 0.563052 2
f 73/178/38 71/177/37 74/180/38

v 4 6.9282 2
vt 12 14.9282
vt 11.5 14.0622
vt 12.9497 12.9497
f 75/181/17 74/182/17 71/183/17

v 2.07055 7.72741 2
vt 10.0706 15.7274
f 76/184/17 74/182/17 75/181/17

v 1.81173 6.76148 2
vt 9.81173 14.7615
f 76/184/17 77/185/17 74/182/17

v 0 8 2
vt 8 16
f 78/186/17 77/185/17 76/184/17

v 0 7 2
vt 8 15
f 78/186/17 79/187/17 77/185/17

v -1.81173 6.76148 2
vt 6.18827 14.7615
f 78/186/17 80/188/17 79/187/17

v -2.07055 7.72741 2
vt 5.92945 15.7274
f 81/189/17 80/188/17 78/186/17

vt 4.5 14.0622
f 81/189/17 29/190/17 80/188/17

f 32/64/17 29/190/17 81/189/17

f 32/64/17 28/63/17 29/190/17

v -2.07055 7.72741 0
vn -0.258819 0.965926 0
f 82/12/39 32/13/16 81/11/39

f 32/13/16 82/12/39 31/10/16

vt -5.92945 15.7274
f 30/60/1 31/59/1 82/191/1

v -1.81173 6.76148 0
vt -6.18827 14.7615
f 30/60/1 82/191/1 83/192/1

v 0 8 0
vt -8 16
f 83/192/1 82/191/1 84/193/1

vt -7.93156 2
vn 2.09963e-016 1 0
vt -7.93156 0
f 81/194/39 84/16/40 82/195/39

f 84/16/40 81/194/39 78/15/40

vt -5.84314 2
v 2.07055 7.72741 0
vt -7.93156 0
vn 0.258819 0.965926 0
vt -5.84314 0
f 78/196/40 85/197/41 84/198/40

vt -7.93156 2
f 85/197/41 78/196/40 76/199/41

vt -3.28536 2
v 4 6.9282 0
vt -5.37378 0
vn 0.5 0.866025 0
vt -3.28536 0
f 76/200/41 86/201/42 85/202/41

vt -5.37378 2
f 86/201/42 76/200/41 75/203/42

vt -0.432526 2
v 5.65685 5.65685 0
vt -2.52094 0
vn 0.707107 0.707107 0
vt -0.432526 0
f 75/204/42 87/205/43 86/206/42

v 5.65685 5.65685 2
vt -2.52094 2
f 87/205/43 75/204/42 88/207/43

vt 13.6569 13.6569
f 75/181/17 71/183/17 88/208/17

vt 14.0622 11.5
f 88/208/17 71/183/17 69/209/17

v 6.9282 4 2
vt 14.9282 12
f 88/208/17 69/209/17 89/210/17

vt 14.7615 9.81173
f 89/210/17 69/209/17 67/211/17

f 89/210/17 67/211/17 63/155/17

v 7.72741 2.07055 2
vt 15.7274 10.0706
f 89/210/17 63/155/17 90/212/17

f 90/212/17 63/155/17 64/156/17

v 8 -1.77636e-015 2
vt 16 8
f 90/212/17 64/156/17 91/213/17

vt 7.93156 2
v 8 -1.77636e-015 0
vt 10.02 0
vn 1 -4.33924e-016 0
vt 10.02 2
f 64/214/33 92/215/44 91/216/44

vt 7.93156 0
f 92/215/44 64/214/33 65/217/33

v 7.72741 2.07055 0
vt -15.7274 10.0706
vt -16 8
f 65/160/1 93/218/1 92/219/1

f 66/159/1 93/218/1 65/160/1

v 6.9282 4 0
vt -14.9282 12
f 66/159/1 94/220/1 93/218/1

vt -14.7615 9.81173
f 68/221/1 94/220/1 66/159/1

vt -14.0622 11.5
f 70/222/1 94/220/1 68/221/1

vt -13.6569 13.6569
f 70/222/1 87/223/1 94/220/1

vt -12.9497 12.9497
f 72/224/1 87/223/1 70/222/1

vt -12 14.9282
f 72/224/1 86/225/1 87/223/1

vt -11.5 14.0622
f 73/226/1 86/225/1 72/224/1

vt -10.0706 15.7274
f 73/226/1 85/227/1 86/225/1

v 1.81173 6.76148 0
vt -9.81173 14.7615
f 95/228/1 85/227/1 73/226/1

v 0 7 0
vt -8 15
f 96/229/1 85/227/1 95/228/1

f 96/229/1 84/193/1 85/227/1

f 83/192/1 84/193/1 96/229/1

vn -2.79951e-017 -1 0
vt 8.06209 0
vn 0.258819 -0.965926 0
f 79/47/45 83/230/46 96/44/45

vt 8.06209 2
f 83/230/46 79/47/45 80/231/46

vt 9.53882 0
f 80/51/46 30/232/15 83/48/46

vt 9.53882 2
f 30/232/15 80/51/46 29/233/15

vt 5.97367 0
vt 7.80103 2
vn -0.258819 -0.965926 0
vt 5.97367 2
f 96/234/45 77/235/47 79/236/45

vt 7.80103 0
f 77/235/47 96/234/45 95/237/47

vt 3.41589 0
vt 5.24325 2
vt 3.41589 2
f 95/238/47 74/239/38 77/240/47

vt 5.24325 0
f 74/239/38 95/238/47 73/241/38

vt 2.52094 0
vt 0.432526 2
vn 0.866025 0.5 0
vt 0.432526 0
f 87/242/43 89/243/48 94/244/48

vt 2.52094 2
f 89/243/48 87/242/43 88/245/43

vt 3.28536 2
vn 0.965926 0.258819 0
vt 5.37378 0
vt 5.37378 2
f 90/246/49 94/247/48 89/248/48

vt 3.28536 0
f 94/247/48 90/246/49 93/249/49

vt 5.84314 2
vt 7.93156 0
vt 7.93156 2
f 91/250/44 93/251/49 90/252/49

vt 5.84314 0
f 93/251/49 91/250/44 92/253/44

vt 2.39042 0
vn 0.866025 0.5 0
vt 0.563052 2
vt 0.563052 0
f 20/254/50 34/255/19 19/256/19

vt 2.39042 2
f 34/255/19 20/254/50 33/257/50

vt 5.24325 0
vt 3.41589 2
vt 3.41589 0
f 21/258/11 33/259/50 20/260/50

vt 5.24325 2
f 33/259/50 21/258/11 22/261/11

g Mesh2 Group2 Model

usemtl rondelle
v -6.76148 -1.81173 1
vt 0.0283107 0.345555
v -6.76148 1.81173 1
vt 0.0283108 0.600879
v -7 1.77636e-015 1
vt 0.0115037 0.473217
f 97/262/17 98/263/17 99/264/17

v -6.06218 -3.5 1
vt 0.0775864 0.226593
f 98/263/17 97/262/17 100/265/17

v -6.06218 3.5 1
vt 0.0775866 0.719841
f 98/263/17 100/265/17 101/266/17

v -4.94975 -4.94975 1
vt 0.155973 0.124438
f 101/266/17 100/265/17 102/267/17

v -4.94975 4.94975 1
vt 0.155973 0.821996
f 101/266/17 102/267/17 103/268/17

v -3.5 -6.06218 1
vt 0.258128 0.0460514
f 103/268/17 102/267/17 104/269/17

v -3.5 6.06218 1
vt 0.258128 0.900383
f 103/268/17 104/269/17 105/270/17

v -1.81173 -6.76148 1
vt 0.37709 -0.00322436
f 105/270/17 104/269/17 106/271/17

v -1.81173 6.76148 1
vt 0.37709 0.949658
f 105/270/17 106/271/17 107/272/17

v 0 -7 1
vt 0.504752 -0.0200314
f 107/272/17 106/271/17 108/273/17

v 8.88178e-016 7 1
vt 0.504752 0.966465
f 107/272/17 108/273/17 109/274/17

v 1.81173 -6.76148 1
vt 0.632414 -0.00322436
f 109/274/17 108/273/17 110/275/17

v 1.81173 6.76148 1
vt 0.632415 0.949658
f 109/274/17 110/275/17 111/276/17

v 3.5 -6.06218 1
vt 0.751376 0.0460514
f 111/276/17 110/275/17 112/277/17

v 3.5 6.06218 1
vt 0.751377 0.900383
f 111/276/17 112/277/17 113/278/17

v 4.94975 -4.94975 1
vt 0.853532 0.124438
f 113/278/17 112/277/17 114/279/17

v 4.94975 4.94975 1
vt 0.853532 0.821996
f 113/278/17 114/279/17 115/280/17

v 6.06218 -3.5 1
vt 0.931918 0.226593
f 115/280/17 114/279/17 116/281/17

v 6.06218 3.5 1
vt 0.931918 0.719841
f 115/280/17 116/281/17 117/282/17

v 6.76148 -1.81173 1
vt 0.981194 0.345555
f 117/282/17 116/281/17 118/283/17

v 6.76148 1.81173 1
vt 0.981194 0.600879
f 117/282/17 118/283/17 119/284/17

v 7 0 1
vt 0.998001 0.473217
f 119/284/17 118/283/17 120/285/17

g Mesh3 Group2 Model

v -6.76148 1.81173 0.75
vt 0.981194 0.600879
v -6.76148 -1.81173 0.75
vt 0.981194 0.345555
v -7 1.77636e-015 0.75
vt 0.998001 0.473217
f 121/286/1 122/287/1 123/288/1

v -6.06218 -3.5 0.75
vt 0.931918 0.226593
f 122/287/1 121/286/1 124/289/1

v -6.06218 3.5 0.75
vt 0.931918 0.719841
f 124/289/1 121/286/1 125/290/1

v -4.94975 -4.94975 0.75
vt 0.853532 0.124438
f 124/289/1 125/290/1 126/291/1

v -4.94975 4.94975 0.75
vt 0.853532 0.821996
f 126/291/1 125/290/1 127/292/1

v -3.5 -6.06218 0.75
vt 0.751376 0.0460514
f 126/291/1 127/292/1 128/293/1

v -3.5 6.06218 0.75
vt 0.751377 0.900383
f 128/293/1 127/292/1 129/294/1

v -1.81173 -6.76148 0.75
vt 0.632414 -0.00322436
f 128/293/1 129/294/1 130/295/1

v -1.81173 6.76148 0.75
vt 0.632415 0.949658
f 130/295/1 129/294/1 131/296/1

v 0 -7 0.75
vt 0.504752 -0.0200314
f 130/295/1 131/296/1 132/297/1

v 8.88178e-016 7 0.75
vt 0.504752 0.966465
f 132/297/1 131/296/1 133/298/1

v 1.81173 -6.76148 0.75
vt 0.37709 -0.00322436
f 132/297/1 133/298/1 134/299/1

v 1.81173 6.76148 0.75
vt 0.37709 0.949658
f 134/299/1 133/298/1 135/300/1

v 3.5 6.06218 0.75
vt 0.258128 0.900383
f 134/299/1 135/300/1 136/301/1

v 3.5 -6.06218 0.75
vt 0.258128 0.0460514
f 134/299/1 136/301/1 137/302/1

v 4.94975 -4.94975 0.75
vt 0.155973 0.124438
f 137/302/1 136/301/1 138/303/1

v 4.94975 4.94975 0.75
vt 0.155973 0.821996
f 138/303/1 136/301/1 139/304/1

v 6.06218 -3.5 0.75
vt 0.0775864 0.226593
f 138/303/1 139/304/1 140/305/1

v 6.06218 3.5 0.75
vt 0.0775866 0.719841
f 140/305/1 139/304/1 141/306/1

v 6.76148 1.81173 0.75
vt 0.0283108 0.600879
f 140/305/1 141/306/1 142/307/1

v 6.76148 -1.81173 0.75
vt 0.0283107 0.345555
f 140/305/1 142/307/1 143/308/1

v 7 0 0.75
vt 0.0115037 0.473217
f 143/308/1 142/307/1 144/309/1

