# Alias OBJ Model File
# Exported from SketchUp, (c) 2000-2006 Google, Inc.
# File units = inches

mtllib Goaler.mtl

g Mesh1 Model

usemtl canada_hockey_goalie_vector
v 1 0.335085 10
vt 0.534205 1.00307
vn 1 -8.84994e-017 -8.89602e-017
v 1 -0.152973 10
vt 0.485336 1.00307
v 1 -0.908017 9.47964
vt 0.409825 0.950875
v 1 -0.908017 8.66485
vt 0.409968 0.869146
v 1 -1.95917 8.50997
vt 0.304743 0.853611
v 1 -3.1157 7.76629
vt 0.189071 0.779014
v 1 -3.38595 10
vt 0.161616 1.00307
v 1 -4.25497 10
vt 0.0746008 1.00307
v 1 -3.77018 6.41144
vt 0.123776 0.643113
v 1 -5 5.25593
vt 0.000837148 0.527208
v 1 -5 4.76931
vt 0.000923018 0.478397
v 1 -3.84006 3.67154
vt 0.117263 0.368283
v 1 -5 2.4459
vt 0.00133301 0.245343
v 1 -5 0
vt 0.00176462 2.23789e-006
v 1 -0.225654 0
vt 0.479823 1.16944e-006
v 1 -0.225654 0.850146
vt 0.479673 0.0852767
v 1 -1.99028 1.48395
vt 0.302868 0.148852
v 1 0.0570828 3.41228
vt 0.507531 0.342276
v 1 3.27096 0
vt 0.829941 3.8694e-007
v 1 5 0
vt 1.00307 8.92307e-018
v 1 5 1.74827
vt 1.00276 0.175364
v 1 3.0105 3.80226
vt 0.80319 0.381393
v 1 3.0105 4.52592
vt 0.803062 0.453981
v 1 4.19215 5.34451
vt 0.921238 0.536092
v 1 4.19215 6.65701
vt 0.921006 0.667744
v 1 3.76521 7.19588
vt 0.878161 0.721796
v 1 2.9625 7.0701
vt 0.797808 0.70918
v 1 2.73757 7.37015
vt 0.775232 0.739277
v 1 2.21272 8.07026
vt 0.722554 0.809503
v 1 1.29618 8.82532
vt 0.630648 0.885241
v 1 0.979549 9.50521
vt 0.598823 0.953438
f 1/1/1 2/2/1 3/3/1 4/4/1 5/5/1 6/6/1 7/7/1 8/8/1 9/9/1 10/10/1 11/11/1 12/12/1 13/13/1 14/14/1 15/15/1 16/16/1 17/17/1 18/18/1 19/19/1 20/20/1 21/21/1 22/22/1 23/23/1 24/24/1 25/25/1 26/26/1 27/27/1 28/28/1 29/29/1 30/30/1 31/31/1 

vt 0.106329 -0.0154909
vn 8.89602e-017 0 1
vt 0.106329 0.0339326
v -1 0.335085 10
vt -0.106329 0.0339326
v -1 -0.152973 10
vt -0.106329 -0.0154909
f 2/32/2 1/33/2 32/34/2 33/35/2 

vt -0.106329 0.589771
vn 1.24456e-016 0.608978 0.793187
vt -0.106329 0.507493
v -1 0.979549 9.50521
vt 0.106329 0.507493
vt 0.106329 0.589771
f 1/36/3 31/37/3 34/38/3 32/39/3 

vt -0.106329 0.830693
vn 1.17783e-016 0.906516 0.42217
vt -0.106329 0.754743
v -1 1.29618 8.82532
vt 0.106329 0.754743
vt 0.106329 0.830693
f 31/40/4 30/41/4 35/42/4 34/43/4 

vt -0.106329 0.466942
vn 1.24933e-016 0.635838 0.771822
vt -0.106329 0.346689
v -1 2.21272 8.07026
vt 0.106329 0.346689
vt 0.106329 0.466942
f 30/44/5 29/45/5 36/46/5 35/47/5 

vt -0.106329 0.519491
vn 1.24172e-016 0.800127 0.599831
vt -0.106329 0.430884
v -1 2.73757 7.37015
vt 0.106329 0.430884
vt 0.106329 0.519491
f 29/48/6 28/49/6 37/50/6 36/51/6 

vt -0.106329 0.430884
vn 1.24172e-016 0.800127 0.599831
vt -0.106329 0.392909
v -1 2.9625 7.0701
vt 0.106329 0.392909
vt 0.106329 0.430884
f 28/52/7 27/53/7 38/54/7 37/55/7 

vt 0.106329 0.407216
vn 7.4188e-017 -0.154802 0.987945
vt 0.106329 0.489495
v -1 3.76521 7.19588
vt -0.106329 0.489495
vt -0.106329 0.407216
f 27/56/8 26/57/8 39/58/8 38/59/8 

vt -0.106329 0.334374
vn 1.24611e-016 0.783805 0.621007
vt -0.106329 0.264754
v -1 4.19215 6.65701
vt 0.106329 0.264754
vt 0.106329 0.334374
f 26/60/9 25/61/9 40/62/9 39/63/9 

vt -0.106329 0.674128
vn 8.84994e-017 1 0
vt -0.106329 0.541216
v -1 4.19215 5.34451
vt 0.106329 0.541216
vt 0.106329 0.674128
f 25/64/10 24/65/10 41/66/10 40/67/10 

vt -0.106329 0.657165
vn -2.27307e-017 0.569456 -0.822022
vt -0.106329 0.511596
v -1 3.0105 4.52592
vt 0.106329 0.511596
vt 0.106329 0.657165
f 24/68/11 23/69/11 42/70/11 41/71/11 

vt -0.106329 0.458321
vn 8.84994e-017 1 0
vt -0.106329 0.385039
v -1 3.0105 3.80226
vt 0.106329 0.385039
vt 0.106329 0.458321
f 23/72/12 22/73/12 43/74/12 42/75/12 

vt -0.106329 0.0644652
vn 1.25462e-016 0.718291 0.695743
vt -0.106329 -0.225108
v -1 5 1.74827
vt 0.106329 -0.225108
vt 0.106329 0.0644652
f 22/76/13 21/77/13 44/78/13 43/79/13 

vt -0.106329 0.17704
vn 8.84994e-017 1 0
vt -0.106329 0
v -1 5 1.7792e-016
vt 0.106329 1.80173e-017
vt 0.106329 0.17704
f 21/80/14 20/81/14 45/82/14 44/83/14 

vt -0.106329 0.506329
vn -8.89602e-017 0 -1
vt -0.106329 0.331237
v -1 3.27096 1.7792e-016
vt 0.106329 0.331237
vt 0.106329 0.506329
f 20/84/15 19/85/15 46/86/15 45/87/15 

vt 0.106329 -0.227105
vn -1.25417e-016 -0.727953 -0.685627
vt 0.106329 0.247579
v -1 0.0570828 3.41228
vt -0.106329 0.247579
vt -0.106329 -0.227105
f 19/88/16 18/89/16 47/90/16 46/91/16 

vt -0.106329 0.241125
vn -4.0812e-018 0.685627 -0.727953
vt -0.106329 -0.0436856
v -1 -1.99028 1.48395
vt 0.106329 -0.0436856
vt 0.106329 0.241125
f 18/92/17 17/93/17 48/94/17 47/95/17 

vt -0.106329 0.240481
vn 1.13639e-016 0.338029 0.941136
vt -0.106329 0.0506071
v -1 -0.225654 0.850146
vt 0.106329 0.0506071
vt 0.106329 0.240481
f 17/96/18 16/97/18 49/98/18 48/99/18 

vt -0.106329 0.0860908
vn 8.84994e-017 1 4.62293e-032
vt -0.106329 1.05639e-033
v -1 -0.225654 1.7792e-016
vt 0.106329 0.0860908
f 16/100/19 15/101/19 50/82/19 49/102/19 

vt -0.106329 -0.0228511
vn -8.89602e-017 -1.24121e-032 -1
vt -0.106329 -0.506329
v -1 -5 1.7792e-016
vt 0.106329 -0.506329
vt 0.106329 -0.0228511
f 15/103/20 14/104/20 51/105/20 50/106/20 

vt 0.106329 0
vn -8.84994e-017 -1 0
vt 0.106329 0.247686
v -1 -5 2.4459
vt -0.106329 0.247686
vt -0.106329 1.80173e-017
f 14/107/21 13/108/21 52/109/21 51/110/21 

vt 0.106329 -0.168142
vn -3.12853e-018 -0.726304 0.687374
vt 0.106329 0.0027442
v -1 -3.84006 3.67154
vt -0.106329 0.0027442
vt -0.106329 -0.168142
f 13/111/22 12/112/22 53/113/22 52/114/22 

vt 0.106329 0.538002
vn -1.25444e-016 -0.687374 -0.726304
vt 0.106329 0.699728
v -1 -5 4.76931
vt -0.106329 0.699728
vt -0.106329 0.538002
f 12/115/23 11/116/23 54/117/23 53/118/23 

vt 0.106329 0.482968
vt 0.106329 0.532246
v -1 -5 5.25593
vt -0.106329 0.532246
vt -0.106329 0.482968
f 11/119/21 10/120/21 55/121/21 54/122/21 

vt 0.106329 -0.00454887
vn 4.23274e-018 -0.684747 0.728781
vt 0.106329 0.166337
v -1 -3.77018 6.41144
vt -0.106329 0.166337
vt -0.106329 -0.00454887
f 10/123/24 9/124/24 56/125/24 55/126/24 

vt 0.106329 0.694527
vn -9.96123e-017 -0.990998 -0.133875
vt 0.106329 1.06123
v -1 -4.25497 10
vt -0.106329 1.06123
vt -0.106329 0.694527
f 9/127/25 8/128/25 57/129/25 56/130/25 

vt 0.106329 -0.430883
vn 8.89602e-017 0 1
vt 0.106329 -0.342881
v -1 -3.38595 10
vt -0.106329 -0.342881
vt -0.106329 -0.430883
f 8/131/26 7/132/26 58/133/26 57/134/26 

vt -0.106329 1.04651
vn 9.8544e-017 0.99276 0.120113
vt -0.106329 0.818663
v -1 -3.1157 7.76629
vt 0.106329 0.818663
vt 0.106329 1.04651
f 7/135/27 6/136/27 59/137/27 58/138/27 

vt 0.106329 0.159984
vn 2.69595e-017 -0.540862 0.841111
vt 0.106329 0.299224
v -1 -1.95917 8.50997
vt -0.106329 0.299224
vt -0.106329 0.159984
f 6/139/28 5/140/28 60/141/28 59/142/28 

vt 0.106329 -0.0706593
vn 7.51097e-017 -0.145768 0.989319
vt 0.106329 0.0369356
v -1 -0.908017 8.66485
vt -0.106329 0.0369356
vt -0.106329 -0.0706593
f 5/143/29 4/144/29 61/145/29 60/146/29 

vt 0.106329 0.877453
vt 0.106329 0.959964
v -1 -0.908017 9.47964
vt -0.106329 0.959964
vt -0.106329 0.877453
f 4/147/21 3/148/21 62/149/21 61/150/21 

vt 0.106329 0.469033
vn 2.30293e-017 -0.567465 0.823398
vt 0.106329 0.561893
vt -0.106329 0.561893
vt -0.106329 0.469033
f 3/151/30 2/152/30 33/153/30 62/154/30 

vt -0.537735 1.00307
vt -0.488865 1.00307
vt -0.41317 0.950877
vt -0.413027 0.869148
vt -0.307747 0.853612
vt -0.191812 0.779015
vt -0.165145 1.00307
vt -0.07813 1.00307
vt -0.126038 0.643114
vt -0.0026921 0.527208
vt -0.00260623 0.478397
vt -0.118558 0.368283
vt -0.00219624 0.245343
vt -0.00176463 2.24578e-006
vt -0.479823 3.31422e-006
vt -0.479973 0.0852788
vt -0.303391 0.148853
vt -0.508736 0.342278
vt -0.829941 4.09673e-006
vt -1.00307 4.48366e-006
vt -1.00338 0.175368
vt -0.804532 0.381396
vt -0.804659 0.453985
vt -0.923124 0.536096
vt -0.923355 0.667748
vt -0.880701 0.7218
vt -0.800303 0.709184
vt -0.777833 0.739281
vt -0.725403 0.809506
vt -0.633762 0.885244
vt -0.602178 0.953441
f 32/155/1 33/156/1 62/157/1 61/158/1 60/159/1 59/160/1 58/161/1 57/162/1 56/163/1 55/164/1 54/165/1 53/166/1 52/167/1 51/168/1 50/169/1 49/170/1 48/171/1 47/172/1 46/173/1 45/174/1 44/175/1 43/176/1 42/177/1 41/178/1 40/179/1 39/180/1 38/181/1 37/182/1 36/183/1 35/184/1 34/185/1 

